<?xml version="1.0" standalone="no"?><!DOCTYPE svg PUBLIC "-//W3C//DTD SVG 1.1//EN" "http://www.w3.org/Graphics/SVG/1.1/DTD/svg11.dtd"><svg t="1506430412380" class="icon" style="" viewBox="0 0 1024 1024" version="1.1" xmlns="http://www.w3.org/2000/svg" p-id="8686" xmlns:xlink="http://www.w3.org/1999/xlink" width="200" height="200"><defs><style type="text/css"></style></defs><path d="M750.154854 20.48a81.92 81.92 0 0 1 81.92 81.92v471.04H156.234854V102.4a81.92 81.92 0 0 1 81.92-81.92h512m81.92 614.4v286.72a81.92 81.92 0 0 1-81.92 81.92H238.154854a81.92 81.92 0 0 1-81.92-81.92V634.88h675.84M750.154854 0H238.154854a102.4 102.4 0 0 0-102.4 102.4v491.52h102.4v20.48H135.754854v307.2a102.4 102.4 0 0 0 102.4 102.4h512a102.4 102.4 0 0 0 102.4-102.4V614.4h-102.4v-20.48h102.4V102.4a102.4 102.4 0 0 0-102.4-102.4zM279.114854 614.4v-20.48h430.08v20.48z" fill="#d81e06" p-id="8687"></path><path d="M193.713254 911.9744v-185.9584h53.0432a102.4 102.4 0 0 1 70.2464 24.576 83.3536 83.3536 0 0 1 28.0576 65.9456 90.112 90.112 0 0 1-28.0576 69.2224 102.4 102.4 0 0 1-72.0896 26.0096z m23.9616-163.84v143.36h27.0336a75.9808 75.9808 0 0 0 55.296-19.2512 72.0896 72.0896 0 0 0 20.48-54.0672 65.1264 65.1264 0 0 0-20.48-52.224 79.4624 79.4624 0 0 0-53.6576-17.6128zM526.922854 911.9744h-26.4192l-19.0464-50.7904H404.042854l-17.8176 50.7904h-26.4192l70.8608-185.9584h25.6zM474.084454 839.68l-28.0576-77.2096a87.8592 87.8592 0 0 1-2.8672-12.9024 71.4752 71.4752 0 0 1-3.072 12.9024L411.620454 839.68zM676.836454 726.016l-61.44 117.5552v68.4032h-24.1664v-67.7888l-59.5968-118.1696h27.4432l40.96 81.92 4.5056 11.8784a65.536 65.536 0 0 1 4.9152-11.6736l41.984-81.92zM693.630054 876.9536a66.56 66.56 0 0 0 22.7328 12.288 85.1968 85.1968 0 0 0 27.0336 4.7104q39.1168 0 39.1168-27.8528a24.576 24.576 0 0 0-4.3008-14.1312 40.96 40.96 0 0 0-11.4688-11.0592 302.6944 302.6944 0 0 0-27.4432-14.7456 105.8816 105.8816 0 0 1-36.864-25.8048 44.6464 44.6464 0 0 1-8.8064-27.2384 43.008 43.008 0 0 1 18.6368-36.6592 77.6192 77.6192 0 0 1 46.8992-13.5168 92.7744 92.7744 0 0 1 40.96 6.7584v26.2144a72.9088 72.9088 0 0 0-42.3936-11.6736 49.3568 49.3568 0 0 0-27.8528 7.168 22.528 22.528 0 0 0-10.6496 20.48 24.1664 24.1664 0 0 0 7.3728 18.432 149.0944 149.0944 0 0 0 32.3584 19.2512 114.688 114.688 0 0 1 38.2976 26.2144 44.6464 44.6464 0 0 1 10.8544 29.4912 43.8272 43.8272 0 0 1-17.8176 37.4784 81.92 81.92 0 0 1-49.3568 13.1072 128.4096 128.4096 0 0 1-25.8048-3.072 61.44 61.44 0 0 1-20.48-7.5776z" fill="#d81e06" p-id="8688"></path></svg>