<?xml version="1.0" standalone="no"?><!DOCTYPE svg PUBLIC "-//W3C//DTD SVG 1.1//EN" "http://www.w3.org/Graphics/SVG/1.1/DTD/svg11.dtd"><svg t="1506430292920" class="icon" style="" viewBox="0 0 1024 1024" version="1.1" xmlns="http://www.w3.org/2000/svg" p-id="6918" xmlns:xlink="http://www.w3.org/1999/xlink" width="200" height="200"><defs><style type="text/css"></style></defs><path d="M170.666667 768c-17.066667 0-28.444444 11.377778-28.444444 28.444444 0 17.066667 11.377778 28.444444 28.444444 28.444444s28.444444-11.377778 28.444444-28.444444C199.111111 779.377778 187.733333 768 170.666667 768zM256 85.333333l-170.666667 0c-34.133333 0-56.888889 22.755556-56.888889 56.888889l0 739.555556c0 34.133333 22.755556 56.888889 56.888889 56.888889l170.666667 0c34.133333 0 56.888889-22.755556 56.888889-56.888889l0-739.555556C312.888889 108.088889 290.133333 85.333333 256 85.333333zM170.666667 881.777778c-45.511111 0-85.333333-39.822222-85.333333-85.333333 0-45.511111 39.822222-85.333333 85.333333-85.333333s85.333333 39.822222 85.333333 85.333333C256 841.955556 216.177778 881.777778 170.666667 881.777778zM199.111111 426.666667l-113.777778 0 0-56.888889 113.777778 0L199.111111 426.666667zM256 483.555556l0 56.888889-170.666667 0 0-56.888889L256 483.555556zM256 312.888889l-170.666667 0 0-113.777778 170.666667 0L256 312.888889zM512 768c-17.066667 0-28.444444 11.377778-28.444444 28.444444 0 17.066667 11.377778 28.444444 28.444444 28.444444s28.444444-11.377778 28.444444-28.444444C540.444444 779.377778 529.066667 768 512 768zM853.333333 768c-17.066667 0-28.444444 11.377778-28.444444 28.444444 0 17.066667 11.377778 28.444444 28.444444 28.444444s28.444444-11.377778 28.444444-28.444444C881.777778 779.377778 870.4 768 853.333333 768zM938.666667 85.333333l-170.666667 0c-34.133333 0-56.888889 22.755556-56.888889 56.888889l0 739.555556c0 34.133333 22.755556 56.888889 56.888889 56.888889l170.666667 0c34.133333 0 56.888889-22.755556 56.888889-56.888889l0-739.555556C995.555556 108.088889 972.8 85.333333 938.666667 85.333333zM853.333333 881.777778c-45.511111 0-85.333333-39.822222-85.333333-85.333333 0-45.511111 39.822222-85.333333 85.333333-85.333333s85.333333 39.822222 85.333333 85.333333C938.666667 841.955556 898.844444 881.777778 853.333333 881.777778zM881.777778 426.666667l-113.777778 0 0-56.888889 113.777778 0L881.777778 426.666667zM938.666667 483.555556l0 56.888889-170.666667 0 0-56.888889L938.666667 483.555556zM938.666667 312.888889l-170.666667 0 0-113.777778 170.666667 0L938.666667 312.888889zM597.333333 85.333333l-170.666667 0c-34.133333 0-56.888889 22.755556-56.888889 56.888889l0 739.555556c0 34.133333 22.755556 56.888889 56.888889 56.888889l170.666667 0c34.133333 0 56.888889-22.755556 56.888889-56.888889l0-739.555556C654.222222 108.088889 631.466667 85.333333 597.333333 85.333333zM512 881.777778c-45.511111 0-85.333333-39.822222-85.333333-85.333333 0-45.511111 39.822222-85.333333 85.333333-85.333333s85.333333 39.822222 85.333333 85.333333C597.333333 841.955556 557.511111 881.777778 512 881.777778zM540.444444 426.666667l-113.777778 0 0-56.888889 113.777778 0L540.444444 426.666667zM597.333333 483.555556l0 56.888889-170.666667 0 0-56.888889L597.333333 483.555556zM597.333333 312.888889l-170.666667 0 0-113.777778 170.666667 0L597.333333 312.888889z" p-id="6919" fill="#d81e06"></path></svg>