<?xml version="1.0" standalone="no"?><!DOCTYPE svg PUBLIC "-//W3C//DTD SVG 1.1//EN" "http://www.w3.org/Graphics/SVG/1.1/DTD/svg11.dtd"><svg t="1506430230343" class="icon" style="" viewBox="0 0 1024 1024" version="1.1" xmlns="http://www.w3.org/2000/svg" p-id="6211" xmlns:xlink="http://www.w3.org/1999/xlink" width="200" height="200"><defs><style type="text/css"></style></defs><path d="M865.28 291.84h-358.4L394.24 107.52H163.84c-30.72 0-56.32 30.72-56.32 66.56V819.2c0 35.84 25.6 66.56 61.44 66.56h696.32c35.84 0 61.44-30.72 61.44-66.56V358.4c5.12-35.84-25.6-66.56-61.44-66.56z m-721.92 10.24V174.08c0-15.36 10.24-30.72 20.48-30.72h209.92L460.8 291.84H174.08c-10.24 0-20.48 5.12-30.72 10.24z m148.48 399.36c-15.36 0-25.6-10.24-25.6-25.6s10.24-25.6 25.6-25.6 25.6 10.24 25.6 25.6-10.24 25.6-25.6 25.6z m0-168.96c-15.36 0-25.6-10.24-25.6-25.6s10.24-25.6 25.6-25.6 25.6 10.24 25.6 25.6-10.24 25.6-25.6 25.6z m481.28 158.72H409.6c-10.24 0-15.36-10.24-15.36-15.36 0-10.24 5.12-15.36 15.36-15.36h363.52c10.24 0 15.36 10.24 15.36 15.36 0 10.24-5.12 15.36-15.36 15.36z m0-168.96H409.6c-10.24 0-15.36-10.24-15.36-15.36 0-10.24 5.12-15.36 15.36-15.36h363.52c10.24 0 15.36 10.24 15.36 15.36 0 10.24-5.12 15.36-15.36 15.36z" p-id="6212" fill="#d81e06"></path></svg>