<?xml version="1.0" standalone="no"?><!DOCTYPE svg PUBLIC "-//W3C//DTD SVG 1.1//EN" "http://www.w3.org/Graphics/SVG/1.1/DTD/svg11.dtd"><svg t="1506430150626" class="icon" style="" viewBox="0 0 1024 1024" version="1.1" xmlns="http://www.w3.org/2000/svg" p-id="5337" xmlns:xlink="http://www.w3.org/1999/xlink" width="200" height="200"><defs><style type="text/css"></style></defs><path d="M606.828762 614.071723 432.899454 614.071723c-11.819187 0-19.329231 2.205225-22.530133 6.608511-2.004657 2.605338-3.004427 6.909363-3.004427 12.917194l0 28.537963c0 7.410783 1.90028 12.31549 5.706979 14.719236 2.403746 1.605567 6.909363 2.403746 13.517875 2.403746l185.04446 0c12.015661 0 18.023492-4.806469 18.023492-14.419408L629.6577 631.495558c0-5.806239-1.201361-10.012028-3.604084-12.617365C622.848621 615.677291 616.441701 614.071723 606.828762 614.071723z" p-id="5338" fill="#d81e06"></path><path d="M511.949858 62.048171c-247.37097 0-447.905216 200.534246-447.905216 447.905216S264.577864 957.858604 511.949858 957.858604 959.855074 757.324358 959.855074 509.953388 759.320828 62.048171 511.949858 62.048171zM665.10605 725.218126c-8.613168 6.204305-19.329231 9.312086-32.142048 9.312086L409.168983 734.530213c-39.051411 0-58.577117-20.027126-58.577117-60.07933l0-62.482053c0-16.222473 6.007831-29.635971 18.023492-40.253796 10.213619-8.809643 23.130813-13.217023 38.751582-13.217023l214.782761 0c41.853224 0 62.782905 18.525935 62.782905 55.573713l0 69.091588C684.931584 701.388395 678.323073 715.40462 665.10605 725.218126zM352.693738 434.735265l0-55.272861 138.483005 0 0-29.739325 55.873542 0 0 29.739325 136.679939 0 0 55.272861L547.050284 434.735265l0 39.652092 136.679939 0 0 56.474222L352.693738 530.86158 352.693738 474.387357l138.483005 0 0-39.652092L352.693738 434.735265zM783.461645 685.265182c0 25.63689-6.711865 46.157249-20.126386 61.581544-16.822131 19.422352-40.154535 29.138644-69.992097 29.138644L673.216775 775.98537l0-56.774051 18.624173 0c11.213389 0 20.525476-4.205788 27.937283-12.616342 4.204765-4.806469 6.307659-12.617365 6.307659-23.430642L726.08589 364.442316c0-15.217586-3.004427-25.533536-9.012258-30.940686-6.810103-6.608511-18.525935-9.912767-35.146475-9.912767L348.18812 323.588863c-9.41544 0-17.422811 2.905166-24.031323 8.711406-6.209422 5.209652-9.312086 13.118785-9.312086 23.730471l0 307.006186c0 26.034956-3.206018 45.659923-9.612938 58.876945-14.82259 31.039947-40.154535 49.161676-76.000951 54.372352l0-57.074903c19.422352-6.007831 29.138644-19.122523 29.138644-39.352263L258.369466 347.018481c0-24.829502 7.909134-44.857651 23.731494-60.07933 14.217816-13.217023 35.244712-19.826558 63.082734-19.826558l337.644997 0c34.244942 0 59.877739 8.613168 76.901461 25.834388 15.817244 16.024975 23.730471 38.150902 23.730471 66.388013L783.460622 685.265182z" p-id="5339" fill="#d81e06"></path></svg>